<!-- icon666.com - MILLIONS OF FREE VECTOR ICONS --><svg id="Layer_1" viewBox="0 0 24 24" xmlns="http://www.w3.org/2000/svg" data-name="Layer 1"><path d="m20.03174 9.61719a2.54062 2.54062 0 0 0 -2.5459-2.11719h-.98584v-.5a4.5 4.5 0 0 0 -9 0v.5h-.98584a2.54062 2.54062 0 0 0 -2.5459 2.11719l-1.4375 9a2.44824 2.44824 0 0 0 .561 1.97656 2.59989 2.59989 0 0 0 1.9849.90625h13.84668a2.59989 2.59989 0 0 0 1.98486-.90625 2.44824 2.44824 0 0 0 .561-1.97656zm-11.53174-2.61719a3.5 3.5 0 0 1 7 0v.5h-7zm11.64746 12.94434a1.6 1.6 0 0 1 -1.22412.55566h-13.84668a1.6 1.6 0 0 1 -1.22412-.55566 1.42891 1.42891 0 0 1 -.33447-1.16895l1.4375-9a1.54552 1.54552 0 0 1 1.55859-1.27539h.98584v2.5a.5.5 0 0 0 1 0v-2.5h7v2.5a.5.5 0 0 0 1 0v-2.5h.98584a1.54552 1.54552 0 0 1 1.55859 1.27539l1.4375 9a1.42891 1.42891 0 0 1 -.33447 1.16895z"></path></svg>