<!-- icon666.com - MILLIONS OF FREE VECTOR ICONS --><svg id="Capa_1" enable-background="new 0 0 64 64" viewBox="0 0 64 64" xmlns="http://www.w3.org/2000/svg"><path d="m32 59.001c-.211 0-.422-.066-.6-.199l-1.183-.885c-10.042-7.496-25.217-18.825-25.217-32.224 0-10.296 6.021-16.692 15.712-16.692 5.889 0 8.835 2.629 11.288 5.793 2.452-3.164 5.399-5.793 11.287-5.793 9.692 0 15.713 6.396 15.713 16.692 0 13.398-15.175 24.728-25.217 32.224l-1.183.885c-.178.133-.389.199-.6.199zm-11.288-48c-8.586 0-13.712 5.493-13.712 14.692 0 12.396 14.692 23.363 24.414 30.621l.586.439.586-.438c9.723-7.258 24.414-18.226 24.414-30.622 0-9.2-5.126-14.692-13.713-14.692-5.615 0-8.067 2.74-10.479 6.051-.376.517-1.24.517-1.616 0-2.412-3.311-4.864-6.051-10.48-6.051z"></path></svg>